{
  "accessors": [
    {
      "bufferView": 3,
      "componentType": 5126,
      "count": 3585,
      "max": [
        2.481719732284546,
        1.1121478080749512,
        0.9703866839408875
      ],
      "min": [
        -2.5010738372802734,
        -1.4280235767364502,
        -2.9519588947296143
      ],
      "type": "VEC3"
    },
    {
      "bufferView": 3,
      "byteOffset": 43020,
      "componentType": 5126,
      "count": 3585,
      "max": [
        0.9999955296516418,
        0.9999997019767761,
        0.9999516606330872
      ],
      "min": [
        -0.9999963641166687,
        -0.9999997019767761,
        -0.9999048709869385
      ],
      "type": "VEC3"
    },
    {
      "bufferView": 2,
      "componentType": 5126,
      "count": 3585,
      "max": [
        8.270804405212402,
        0.9979401230812073
      ],
      "min": [
        0.004029974341392517,
        0.002059858525171876
      ],
      "type": "VEC2"
    },
    {
      "bufferView": 1,
      "componentType": 5125,
      "count": 11871,
      "type": "SCALAR"
    },
    {
      "bufferView": 5,
      "componentType": 5126,
      "count": 4,
      "max": [
        100.0,
        0.0,
        8.742277657347586e-08,
        0.0,
        8.742277657347586e-08,
        100.0,
        1.0,
        0.0,
        0.0,
        1.0,
        100.0,
        0.0,
        0.0,
        0.0,
        0.0,
        1.0
      ],
      "min": [
        -1.0,
        -5.3531012400248656e-24,
        0.0,
        0.0,
        0.0,
        -6.123234262925839e-17,
        0.0,
        0.0,
        -6.0185348653211596e-40,
        0.0,
        6.123234262925839e-17,
        0.0,
        0.0,
        0.0,
        0.0,
        1.0
      ],
      "type": "MAT4"
    },
    {
      "bufferView": 0,
      "componentType": 5123,
      "count": 3585,
      "type": "VEC4"
    },
    {
      "bufferView": 4,
      "componentType": 5126,
      "count": 3585,
      "max": [
        1.0,
        0.0,
        0.0,
        0.0
      ],
      "min": [
        1.0,
        0.0,
        0.0,
        0.0
      ],
      "type": "VEC4"
    },
    {
      "bufferView": 6,
      "componentType": 5126,
      "count": 601,
      "max": [
        20.0
      ],
      "min": [
        0.0
      ],
      "type": "SCALAR"
    },
    {
      "bufferView": 8,
      "componentType": 5126,
      "count": 601,
      "max": [
        0.7071067094802856,
        0.7071067690849304,
        0.7071067690849304,
        0.7071065902709961
      ],
      "min": [
        -0.49888235330581665,
        -0.49929219484329224,
        -0.49929213523864746,
        -0.49888235330581665
      ],
      "type": "VEC4"
    },
    {
      "bufferView": 6,
      "byteOffset": 2404,
      "componentType": 5126,
      "count": 601,
      "max": [
        20.0
      ],
      "min": [
        0.0
      ],
      "type": "SCALAR"
    },
    {
      "bufferView": 7,
      "componentType": 5126,
      "count": 601,
      "max": [
        0.7566083669662476,
        1.3234889800848443e-23,
        0.37317001819610596
      ],
      "min": [
        -0.5858555436134338,
        -6.617444900424222e-24,
        -0.2556390166282654
      ],
      "type": "VEC3"
    },
    {
      "bufferView": 6,
      "byteOffset": 4808,
      "componentType": 5126,
      "count": 601,
      "max": [
        20.0
      ],
      "min": [
        0.0
      ],
      "type": "SCALAR"
    },
    {
      "bufferView": 8,
      "byteOffset": 9616,
      "componentType": 5126,
      "count": 601,
      "max": [
        0.769325315952301,
        0.07501310855150223,
        0.0673120766878128,
        0.7498622536659241
      ],
      "min": [
        0.6607468724250793,
        -0.06626448780298233,
        -0.07477287948131561,
        0.6388567090034485
      ],
      "type": "VEC4"
    }
  ],
  "animations": [
    {
      "channels": [
        {
          "sampler": 0,
          "target": {
            "node": 11,
            "path": "rotation"
          }
        },
        {
          "sampler": 1,
          "target": {
            "node": 10,
            "path": "translation"
          }
        },
        {
          "sampler": 2,
          "target": {
            "node": 10,
            "path": "rotation"
          }
        }
      ],
      "name": "Armature|FinalAnim",
      "samplers": [
        {
          "input": 7,
          "interpolation": "LINEAR",
          "output": 8
        },
        {
          "input": 9,
          "interpolation": "LINEAR",
          "output": 10
        },
        {
          "input": 11,
          "interpolation": "LINEAR",
          "output": 12
        }
      ]
    }
  ],
  "asset": {
    "extras": {
      "author": "Lander Van Regenmortel (https://sketchfab.com/BrusselseWafel)",
      "license": "CC-BY-4.0 (http://creativecommons.org/licenses/by/4.0/)",
      "source": "https://sketchfab.com/3d-models/the-flying-circus-spad-xiii-1b2fbdc74c0c41529ddfcba24af7cdc2",
      "title": "The Flying Circus - SPAD XIII"
    },
    "generator": "Sketchfab-12.66.0",
    "version": "2.0"
  },
  "bufferViews": [
    {
      "buffer": 0,
      "byteLength": 28680,
      "byteStride": 8,
      "name": "shortBufferViews",
      "target": 34962
    },
    {
      "buffer": 0,
      "byteLength": 47484,
      "byteOffset": 28680,
      "name": "floatBufferViews",
      "target": 34963
    },
    {
      "buffer": 0,
      "byteLength": 28680,
      "byteOffset": 76164,
      "byteStride": 8,
      "name": "floatBufferViews",
      "target": 34962
    },
    {
      "buffer": 0,
      "byteLength": 86040,
      "byteOffset": 104844,
      "byteStride": 12,
      "name": "floatBufferViews",
      "target": 34962
    },
    {
      "buffer": 0,
      "byteLength": 57360,
      "byteOffset": 190884,
      "byteStride": 16,
      "name": "floatBufferViews",
      "target": 34962
    },
    {
      "buffer": 0,
      "byteLength": 256,
      "byteOffset": 248244,
      "name": "floatBufferViews"
    },
    {
      "buffer": 0,
      "byteLength": 7212,
      "byteOffset": 248500,
      "name": "floatBufferViews"
    },
    {
      "buffer": 0,
      "byteLength": 7212,
      "byteOffset": 255712,
      "byteStride": 12,
      "name": "floatBufferViews"
    },
    {
      "buffer": 0,
      "byteLength": 19232,
      "byteOffset": 262924,
      "byteStride": 16,
      "name": "floatBufferViews"
    }
  ],
  "buffers": [
    {
      "byteLength": 282156,
      "uri": "scene.bin"
    }
  ],
  "images": [
    {
      "uri": "textures/material_baseColor.jpeg"
    }
  ],
  "materials": [
    {
      "doubleSided": true,
      "name": "material",
      "pbrMetallicRoughness": {
        "baseColorTexture": {
          "index": 0
        },
        "metallicFactor": 0.0
      }
    }
  ],
  "meshes": [
    {
      "name": "PlaneAnim.001_UV_0",
      "primitives": [
        {
          "attributes": {
            "JOINTS_0": 5,
            "NORMAL": 1,
            "POSITION": 0,
            "TEXCOORD_0": 2,
            "WEIGHTS_0": 6
          },
          "indices": 3,
          "material": 0,
          "mode": 4
        }
      ]
    }
  ],
  "nodes": [
    {
      "children": [
        1
      ],
      "matrix": [
        1.0,
        0.0,
        0.0,
        0.0,
        0.0,
        2.220446049250313e-16,
        -1.0,
        0.0,
        0.0,
        1.0,
        2.220446049250313e-16,
        0.0,
        0.0,
        0.0,
        0.0,
        1.0
      ],
      "name": "Sketchfab_model"
    },
    {
      "children": [
        2
      ],
      "matrix": [
        1.0,
        0.0,
        0.0,
        0.0,
        0.0,
        0.0,
        1.0,
        0.0,
        0.0,
        -1.0,
        0.0,
        0.0,
        0.0,
        0.0,
        0.0,
        1.0
      ],
      "name": "8bbd9c98477f4eb18980ad7e11d0fd09.fbx"
    },
    {
      "children": [
        3
      ],
      "name": "Object_2"
    },
    {
      "children": [
        4,
        5
      ],
      "name": "RootNode"
    },
    {
      "name": "PlaneAnim.001",
      "rotation": [
        -0.7071068286895752,
        0.0,
        0.0,
        0.7071067094802856
      ],
      "scale": [
        100.0,
        100.0,
        100.0
      ]
    },
    {
      "children": [
        6
      ],
      "name": "Armature",
      "rotation": [
        -0.7071068286895752,
        0.0,
        0.0,
        0.7071067094802856
      ],
      "scale": [
        100.0,
        100.0,
        100.0
      ]
    },
    {
      "children": [
        7,
        9,
        8
      ],
      "name": "Object_6"
    },
    {
      "children": [
        10
      ],
      "name": "_rootJoint"
    },
    {
      "matrix": [
        100.0,
        0.0,
        0.0,
        0.0,
        0.0,
        6.123233995736766e-15,
        -100.0,
        0.0,
        0.0,
        100.0,
        6.123233995736766e-15,
        0.0,
        0.0,
        0.0,
        0.0,
        1.0
      ],
      "name": "Object_8"
    },
    {
      "mesh": 0,
      "name": "Object_9",
      "skin": 0
    },
    {
      "children": [
        11
      ],
      "name": "Bone_00",
      "rotation": [
        0.6943970918655396,
        -0.0006669872673228383,
        0.0006436347030103207,
        0.7195914387702942
      ],
      "translation": [
        -0.11119067668914795,
        0.0,
        -0.17907950282096863
      ]
    },
    {
      "children": [
        12
      ],
      "name": "Bone.001_01",
      "rotation": [
        0.6439042687416077,
        -0.29221102595329285,
        -0.29221105575561523,
        0.6439042687416077
      ],
      "scale": [
        1.0,
        1.0000001192092896,
        1.0
      ],
      "translation": [
        -7.8580342233181e-10,
        0.0,
        5.411493475548923e-10
      ]
    },
    {
      "name": "Bone.001_end_02",
      "rotation": [
        -1.734723475976807e-18,
        -5.345116710353537e-17,
        -1.734723475976807e-18,
        1.0
      ],
      "translation": [
        6.938893903907228e-18,
        1.6036081314086914,
        -2.7755575615628914e-17
      ]
    }
  ],
  "samplers": [
    {
      "magFilter": 9729,
      "minFilter": 9987,
      "wrapS": 10497,
      "wrapT": 10497
    }
  ],
  "scene": 0,
  "scenes": [
    {
      "name": "Sketchfab_Scene",
      "nodes": [
        0
      ]
    }
  ],
  "skins": [
    {
      "inverseBindMatrices": 4,
      "joints": [
        7,
        10,
        11,
        12
      ],
      "skeleton": 7
    }
  ],
  "textures": [
    {
      "sampler": 0,
      "source": 0
    }
  ]
}
